<svg width="22" height="22" viewBox="0 0 22 22" fill="none" xmlns="http://www.w3.org/2000/svg">
<g id="vuesax/outline/arrow-right">
<g id="arrow-right">
<path id="Vector" d="M12.7462 16.6245C12.5784 16.6245 12.4106 16.5626 12.2781 16.4301C12.0219 16.174 12.0219 15.75 12.2781 15.4938L17.1717 10.6001L12.2781 5.70646C12.0219 5.45029 12.0219 5.02629 12.2781 4.77013C12.5342 4.51396 12.9582 4.51396 13.2144 4.77013L18.5762 10.132C18.8324 10.3881 18.8324 10.8121 18.5762 11.0683L13.2144 16.4301C13.0819 16.5626 12.9141 16.6245 12.7462 16.6245Z" fill="#006CAC"/>
<path id="Vector_2" d="M17.9577 11.2625H3.09121C2.72904 11.2625 2.42871 10.9622 2.42871 10.6C2.42871 10.2378 2.72904 9.9375 3.09121 9.9375H17.9577C18.3199 9.9375 18.6202 10.2378 18.6202 10.6C18.6202 10.9622 18.3199 11.2625 17.9577 11.2625Z" fill="#006CAC"/>
</g>
</g>
</svg>
