<svg width="24" height="25" viewBox="0 0 24 25" fill="none" xmlns="http://www.w3.org/2000/svg">
<g id="vuesax/outline/camera">
<g id="camera">
<path id="Vector" d="M17.2397 23.25H6.75969C3.95969 23.25 2.17969 21.58 2.01969 18.79L1.49969 10.54C1.41969 9.29 1.84969 8.09 2.70969 7.18C3.55969 6.27 4.75969 5.75 5.99969 5.75C6.31969 5.75 6.62969 5.56 6.77969 5.26L7.49969 3.83C8.08969 2.66 9.56968 1.75 10.8597 1.75H13.1497C14.4397 1.75 15.9097 2.66 16.4997 3.82L17.2197 5.28C17.3697 5.56 17.6697 5.75 17.9997 5.75C19.2397 5.75 20.4397 6.27 21.2897 7.18C22.1497 8.1 22.5797 9.29 22.4997 10.54L21.9797 18.8C21.7997 21.63 20.0697 23.25 17.2397 23.25ZM10.8597 3.25C10.1197 3.25 9.17969 3.83 8.83969 4.5L8.11969 5.94C7.69969 6.75 6.88969 7.25 5.99969 7.25C5.15969 7.25 4.37968 7.59 3.79969 8.2C3.22969 8.81 2.93969 9.61 2.99969 10.44L3.51969 18.7C3.63968 20.72 4.72969 21.75 6.75969 21.75H17.2397C19.2597 21.75 20.3497 20.72 20.4797 18.7L20.9997 10.44C21.0497 9.61 20.7697 8.81 20.1997 8.2C19.6197 7.59 18.8397 7.25 17.9997 7.25C17.1097 7.25 16.2997 6.75 15.8797 5.96L15.1497 4.5C14.8197 3.84 13.8797 3.26 13.1397 3.26H10.8597V3.25Z" fill="white"/>
<path id="Vector_2" d="M13.5 9.25H10.5C10.09 9.25 9.75 8.91 9.75 8.5C9.75 8.09 10.09 7.75 10.5 7.75H13.5C13.91 7.75 14.25 8.09 14.25 8.5C14.25 8.91 13.91 9.25 13.5 9.25Z" fill="white"/>
<path id="Vector_3" d="M12 19.25C9.79 19.25 8 17.46 8 15.25C8 13.04 9.79 11.25 12 11.25C14.21 11.25 16 13.04 16 15.25C16 17.46 14.21 19.25 12 19.25ZM12 12.75C10.62 12.75 9.5 13.87 9.5 15.25C9.5 16.63 10.62 17.75 12 17.75C13.38 17.75 14.5 16.63 14.5 15.25C14.5 13.87 13.38 12.75 12 12.75Z" fill="white"/>
</g>
</g>
</svg>
