<svg xmlns="http://www.w3.org/2000/svg" width="24" height="24" viewBox="0 0 24 24" fill="none">
  <path d="M8.91001 20.6695C8.72001 20.6695 8.53001 20.5995 8.38001 20.4495C8.09001 20.1595 8.09001 19.6795 8.38001 19.3895L14.9 12.8695C15.38 12.3895 15.38 11.6095 14.9 11.1295L8.38001 4.60953C8.09001 4.31953 8.09001 3.83953 8.38001 3.54953C8.67001 3.25953 9.15001 3.25953 9.44001 3.54953L15.96 10.0695C16.47 10.5795 16.76 11.2695 16.76 11.9995C16.76 12.7295 16.48 13.4195 15.96 13.9295L9.44001 20.4495C9.29001 20.5895 9.10001 20.6695 8.91001 20.6695Z" fill="#17191D"/>
</svg>