<svg width="46" height="46" viewBox="0 0 46 46" fill="none" xmlns="http://www.w3.org/2000/svg">
<path d="M17.5758 29.8616C17.2116 29.8616 16.8474 29.7274 16.5599 29.4399C16.0041 28.8841 16.0041 27.9641 16.5599 27.4083L27.4083 16.5599C27.9641 16.0041 28.8841 16.0041 29.4399 16.5599C29.9958 17.1158 29.9958 18.0358 29.4399 18.5916L18.5916 29.4399C18.3233 29.7274 17.9399 29.8616 17.5758 29.8616Z" fill="#404246"/>
<path d="M28.4241 29.8616C28.0599 29.8616 27.6958 29.7274 27.4083 29.4399L16.5599 18.5916C16.0041 18.0358 16.0041 17.1158 16.5599 16.5599C17.1158 16.0041 18.0358 16.0041 18.5916 16.5599L29.4399 27.4083C29.9958 27.9641 29.9958 28.8841 29.4399 29.4399C29.1524 29.7274 28.7883 29.8616 28.4241 29.8616Z" fill="#404246"/>
</svg>
