<svg width="46" height="46" viewBox="0 0 46 46" fill="none" xmlns="http://www.w3.org/2000/svg">
<g id="vuesax/outline/close-circle">
<g id="close-circle">
<path id="Vector" d="M17.5743 29.8621C17.2101 29.8621 16.846 29.7279 16.5585 29.4404C16.0026 28.8846 16.0026 27.9646 16.5585 27.4088L27.4068 16.5604C27.9626 16.0046 28.8826 16.0046 29.4385 16.5604C29.9943 17.1163 29.9943 18.0363 29.4385 18.5921L18.5901 29.4404C18.3218 29.7279 17.9385 29.8621 17.5743 29.8621Z" fill="#404246"/>
<path id="Vector_2" d="M28.4226 29.8621C28.0585 29.8621 27.6943 29.7279 27.4068 29.4404L16.5585 18.5921C16.0026 18.0363 16.0026 17.1163 16.5585 16.5604C17.1143 16.0046 18.0343 16.0046 18.5901 16.5604L29.4385 27.4088C29.9943 27.9646 29.9943 28.8846 29.4385 29.4404C29.151 29.7279 28.7868 29.8621 28.4226 29.8621Z" fill="#404246"/>
</g>
</g>
</svg>
