<svg width="89" height="93" viewBox="0 0 89 93" fill="none" xmlns="http://www.w3.org/2000/svg">
<g id="Group 1286">
<g id="Group">
<g id="Group_2">
<path id="Vector" d="M21.1939 49.9406C21.1939 55.7406 21.0939 61.6406 21.1939 67.4406C21.2939 70.6406 21.6939 73.9406 24.1939 76.2406C27.4939 79.2406 32.9939 79.2406 37.1939 79.8406C42.8939 80.6406 48.6939 81.2406 54.3939 81.8406C60.1939 82.4406 66.0939 82.8406 71.9939 82.9406C75.8939 83.0406 79.4939 82.3406 82.4939 79.6406C89.7939 73.1406 88.4939 63.1406 86.8939 54.5406C86.6939 53.2406 84.3939 53.5406 84.5939 54.8406C85.3939 62.4406 86.5939 73.9406 78.2939 78.0406C74.4939 79.9406 69.3939 78.7406 65.3939 78.3406C61.4939 77.9406 57.4939 77.6406 53.5939 77.2406C49.6939 76.9406 45.7939 76.5406 41.7939 76.1406C37.7939 75.7406 33.2939 75.8406 29.4939 74.6406C23.9939 73.0406 24.4939 67.6406 24.1939 63.0406C23.8939 58.6406 23.5939 54.3406 23.2939 49.9406C23.2939 48.5406 21.1939 48.5406 21.1939 49.9406Z" fill="#135109"/>
</g>
</g>
<g id="Group_3">
<g id="Group_4">
<path id="Vector_2" d="M24.5941 45.1406C29.9941 43.1406 33.5941 36.9406 35.8941 31.9406C36.3941 30.7406 34.9941 29.3406 33.9941 30.4406C31.8941 32.6406 29.8941 34.8406 27.8941 37.1406C25.9941 39.3406 24.1941 40.9406 23.0941 43.6406C22.6941 44.4406 23.6941 45.4406 24.5941 45.1406Z" fill="#135109"/>
</g>
</g>
<g id="Group_5">
<g id="Group_6">
<path id="Vector_3" d="M28.8944 74.3408C36.3944 69.9408 45.4944 62.3408 54.4944 62.5408C59.6944 62.6408 64.3944 65.4408 68.0944 68.9408C71.5944 72.1408 73.7944 76.7408 77.3944 79.6408C78.9944 80.9408 81.8944 79.2408 80.4944 77.2408C79.7944 76.3408 79.5944 76.0408 78.3944 75.8408C77.1944 75.6408 76.0944 77.0408 77.0944 78.0408C77.2944 78.2408 77.3944 78.3408 77.5944 78.5408C77.4944 77.9408 77.3944 77.2408 77.3944 76.6408C77.2944 76.8408 77.1944 77.0408 77.0944 77.1408C78.2944 77.3408 79.4944 77.4408 80.6944 77.6408C77.1944 68.8408 66.6944 59.9408 57.1944 58.7408C46.1944 57.4408 36.1944 66.5408 27.6944 72.0408C26.2944 73.0408 27.4944 75.1408 28.8944 74.3408Z" fill="#135109"/>
</g>
</g>
<g id="Group_7">
<g id="Group_8">
<path id="Vector_4" d="M29.6939 48.4405C38.7939 48.4405 47.8939 47.5404 57.0939 47.5404C65.8939 47.5404 73.3939 49.0404 81.4939 52.3404C81.2939 51.0404 81.1939 49.6404 80.9939 48.3404C79.6939 49.0404 79.5939 49.2404 78.8939 50.4405C78.2939 51.6405 79.4939 52.6404 80.5939 52.1404C80.8939 52.1404 81.1939 52.2404 81.4939 52.2404C83.7939 53.2404 85.1939 49.4404 83.1939 48.2404C67.0939 38.7404 46.9939 45.0404 29.6939 45.8404C27.9939 45.9404 27.9939 48.4405 29.6939 48.4405Z" fill="#135109"/>
</g>
</g>
<g id="Group_9">
<g id="Group_10">
<path id="Vector_5" d="M43.094 43.1407C42.094 36.7407 40.994 30.4407 39.794 24.1407C38.594 17.7407 36.794 11.4407 37.194 4.84073C36.494 5.54073 35.794 6.24073 34.994 7.04073C41.094 6.44073 47.194 5.84073 53.294 5.24073C58.994 4.64073 64.794 4.44073 70.094 2.64073C71.494 2.14073 71.094 0.440727 69.794 0.240727C64.094 -0.459273 58.094 0.540727 52.394 1.04073C46.594 1.54073 40.794 2.14073 34.994 2.64073C33.794 2.74073 32.894 3.54073 32.794 4.84073C32.394 11.1407 33.794 17.2407 35.194 23.3407C36.894 30.1407 38.594 36.9407 40.494 43.7407C41.094 45.4407 43.294 44.7407 43.094 43.1407Z" fill="#135109"/>
</g>
</g>
<g id="Group_11">
<g id="Group_12">
<path id="Vector_6" d="M65.4942 4.74067C67.0942 5.74067 68.5942 6.84067 70.0942 7.84067C71.3942 8.74067 72.8942 10.0407 74.4942 9.34067C74.9942 9.14067 75.3942 8.74067 75.3942 8.14067C75.2942 6.24067 73.4942 5.34067 71.8942 4.64067C70.0942 3.84067 68.1942 3.04067 66.3942 2.34067C64.9942 1.84067 64.2942 3.94067 65.4942 4.74067Z" fill="#135109"/>
</g>
</g>
<g id="Group_13">
<g id="Group_14">
<path id="Vector_7" d="M72.6939 13.9409C73.1939 24.7409 73.9939 35.5409 75.3939 46.2409C75.7939 49.1409 79.6939 48.6409 79.2939 45.7409C78.8939 42.6409 78.1939 39.8409 76.7939 36.9409C76.1939 35.7409 74.1939 36.5409 74.5939 37.8409C75.4939 40.4409 75.9939 42.8409 75.4939 45.7409C76.7939 45.7409 78.0939 45.7409 79.3939 45.7409C77.7939 35.1409 76.2939 24.5409 75.0939 13.9409C74.6939 12.5409 72.5939 12.4409 72.6939 13.9409Z" fill="#135109"/>
</g>
</g>
<g id="Group_15">
<g id="Group_16">
<path id="Vector_8" d="M62.794 5.34083C63.094 6.94083 63.294 8.54083 63.594 10.1408C63.794 11.3408 63.794 12.8408 64.494 13.8408C65.194 14.6408 66.094 14.8408 67.094 14.5408C68.694 14.1408 70.194 13.4408 71.694 12.8408C73.094 12.3408 72.494 10.1408 71.094 10.6408C69.994 11.0408 68.894 11.4408 67.794 11.7408C67.494 11.8408 66.794 12.2408 66.494 12.1408C66.294 12.0408 66.294 11.6408 66.194 11.2408C65.694 9.04083 65.294 6.84083 64.794 4.64083C64.494 3.44083 62.594 4.04083 62.794 5.34083Z" fill="#135109"/>
</g>
</g>
<g id="Group_17">
<g id="Group_18">
<path id="Vector_9" d="M44.3941 16.2407C46.6941 15.2407 49.1941 16.6407 51.5941 16.2407C53.3941 15.9407 54.7941 14.9407 55.3941 13.1407C55.7941 11.9407 54.1941 11.1407 53.3941 11.9407C52.0941 13.2407 49.9941 13.0407 48.2941 13.0407C46.3941 12.9407 44.6941 13.0407 43.0941 14.0407C41.6941 14.8407 42.8941 16.8407 44.3941 16.2407Z" fill="#E7760D"/>
</g>
</g>
<g id="Group_19">
<g id="Group_20">
<path id="Vector_10" d="M50.8942 23.0405C54.0942 22.9405 57.2942 22.7405 60.4942 22.3405C63.0942 22.0405 65.8942 22.1405 68.0942 20.7405C68.9942 20.1405 68.7942 18.7405 67.7942 18.4405C65.1942 17.7405 62.5942 18.5405 59.9942 18.9405C56.7942 19.4405 53.6942 20.0405 50.5942 20.7405C49.2942 21.0405 49.5942 23.1405 50.8942 23.0405Z" fill="#135109"/>
</g>
</g>
<g id="Group_21">
<g id="Group_22">
<path id="Vector_11" d="M50.894 31.0406C56.494 30.5406 62.394 30.1406 67.794 28.3406C69.194 27.8406 68.994 25.6406 67.394 25.7406C61.694 25.8406 55.994 27.3406 50.494 28.7406C49.294 29.0406 49.594 31.1406 50.894 31.0406Z" fill="#135109"/>
</g>
</g>
<g id="Group_23">
<g id="Group_24">
<path id="Vector_12" d="M52.0943 39.7406C55.0943 39.8406 57.8943 39.5406 60.7943 38.7406C63.1943 38.1406 66.3943 37.3406 67.9943 35.3406C68.6943 34.5406 68.1943 33.3406 67.0943 33.2406C64.6943 33.0406 62.0943 34.4406 59.7943 35.0406C57.0943 35.8406 54.4943 36.5406 51.7943 37.2406C50.3943 37.7406 50.6943 39.6406 52.0943 39.7406Z" fill="#E7760D"/>
</g>
</g>
<g id="Group_25">
<g id="Group_26">
<path id="Vector_13" d="M75.9942 35.1407C76.8942 37.2407 78.0942 39.3407 79.3942 41.3407C79.9942 42.2407 80.5942 42.9407 81.2942 43.6407C82.3942 44.6407 82.8942 44.7407 84.1942 45.1407C85.2942 45.4407 85.9942 44.2407 85.4942 43.4407C85.0942 42.6407 84.9942 42.1407 84.3942 41.4407C83.6942 40.6407 82.8942 39.9407 82.0942 39.2407C80.3942 37.7407 78.9942 36.0407 77.7942 34.1407C77.0942 32.8407 75.3942 33.8407 75.9942 35.1407Z" fill="#135109"/>
</g>
</g>
<g id="Group_27">
<g id="Group_28">
<path id="Vector_14" d="M1.59416 77.4409C3.89416 76.9409 6.29416 76.4409 8.59416 75.8409C10.5942 75.3409 12.6942 75.0409 14.1942 73.3409C13.4942 72.8409 12.8942 72.3409 12.1942 71.8409C11.9942 72.2409 11.7942 72.6409 11.4942 73.0409C10.8942 74.1409 12.4942 75.5409 13.2942 74.4409C13.5942 74.1409 13.8942 73.7409 14.0942 73.4409C14.6942 72.7409 14.4942 71.6409 13.4942 71.3409C11.1942 70.7409 9.19416 71.8409 7.09416 72.6409C4.89416 73.5409 2.69416 74.4409 0.49416 75.4409C-0.60584 75.8409 0.29416 77.7409 1.59416 77.4409Z" fill="#135109"/>
</g>
</g>
<g id="Group_29">
<g id="Group_30">
<path id="Vector_15" d="M2.89426 92.7406C5.69426 90.9406 8.29426 88.5406 10.7943 86.3406C13.2943 84.1406 16.0943 81.8406 17.6943 78.8406C16.6943 78.2406 15.6943 77.6406 14.6943 77.0406C14.3943 77.6406 14.0943 78.2406 13.8943 78.8406C13.3943 79.8406 14.3943 81.1406 15.4943 80.4406C15.9943 80.1406 16.5943 79.7406 17.0943 79.4406C18.9943 78.2406 17.3943 75.5406 15.2943 76.4406C12.1943 77.8406 9.79426 80.6406 7.59426 83.1406C5.29426 85.6406 2.89426 88.0406 0.994257 90.8406C0.0942573 91.9406 1.69426 93.4406 2.89426 92.7406Z" fill="#E7760D"/>
</g>
</g>
</g>
</svg>
