<svg width="24" height="25" viewBox="0 0 24 25" fill="none" xmlns="http://www.w3.org/2000/svg">
<path d="M12 16.83C9.61001 16.83 7.67001 14.89 7.67001 12.5C7.67001 10.11 9.61001 8.17 12 8.17C14.39 8.17 16.33 10.11 16.33 12.5C16.33 14.89 14.39 16.83 12 16.83ZM12 9.67C10.44 9.67 9.17001 10.94 9.17001 12.5C9.17001 14.06 10.44 15.33 12 15.33C13.56 15.33 14.83 14.06 14.83 12.5C14.83 10.94 13.56 9.67 12 9.67Z" fill="#404246"/>
<path d="M12 21.52C8.24 21.52 4.69 19.32 2.25 15.5C1.19 13.85 1.19 11.16 2.25 9.5C4.7 5.68 8.25 3.48 12 3.48C15.75 3.48 19.3 5.68 21.74 9.5C22.8 11.15 22.8 13.84 21.74 15.5C19.3 19.32 15.75 21.52 12 21.52ZM12 4.98C8.77 4.98 5.68 6.92 3.52 10.31C2.77 11.48 2.77 13.52 3.52 14.69C5.68 18.08 8.77 20.02 12 20.02C15.23 20.02 18.32 18.08 20.48 14.69C21.23 13.52 21.23 11.48 20.48 10.31C18.32 6.92 15.23 4.98 12 4.98Z" fill="#404246"/>
</svg>
