<svg width="22" height="22" viewBox="0 0 22 22" fill="none" xmlns="http://www.w3.org/2000/svg">
<g id="vuesax/outline/eye-slash">
<g id="eye-slash">
<path id="Vector" d="M8.5651 13.5142C8.39726 13.5142 8.22943 13.4523 8.09693 13.3198C7.3726 12.5955 6.9751 11.6327 6.9751 10.6168C6.9751 8.50566 8.68876 6.79199 10.7999 6.79199C11.8158 6.79199 12.7786 7.18949 13.5029 7.91383C13.6266 8.03749 13.6973 8.20533 13.6973 8.38199C13.6973 8.55866 13.6266 8.72649 13.5029 8.85016L9.03326 13.3198C8.90076 13.4523 8.73293 13.5142 8.5651 13.5142ZM10.7999 8.11699C9.42193 8.11699 8.3001 9.23883 8.3001 10.6168C8.3001 11.0585 8.41493 11.4825 8.62693 11.8535L12.0366 8.44383C11.6656 8.23183 11.2416 8.11699 10.7999 8.11699Z" fill="#404246"/>
<path id="Vector_2" d="M5.14672 16.3671C4.99656 16.3671 4.83756 16.3141 4.71389 16.2081C3.76872 15.4043 2.92072 14.4149 2.19639 13.2666C1.26006 11.8091 1.26006 9.43293 2.19639 7.96659C4.35172 4.59226 7.48756 2.64893 10.8001 2.64893C12.7434 2.64893 14.6602 3.32026 16.3386 4.58343C16.6301 4.80426 16.6919 5.21943 16.4711 5.51093C16.2502 5.80243 15.8351 5.86426 15.5436 5.64343C14.0949 4.54809 12.4519 3.97393 10.8001 3.97393C7.94689 3.97393 5.21739 5.68759 3.30939 8.68209C2.64689 9.71559 2.64689 11.5176 3.30939 12.5511C3.97189 13.5846 4.73156 14.4768 5.57072 15.2011C5.84456 15.4396 5.87989 15.8548 5.64139 16.1374C5.51772 16.2876 5.33222 16.3671 5.14672 16.3671Z" fill="#404246"/>
<path id="Vector_3" d="M10.8001 18.5846C9.62523 18.5846 8.4769 18.3461 7.37273 17.8779C7.03706 17.7366 6.87806 17.3479 7.0194 17.0122C7.16073 16.6766 7.5494 16.5176 7.88506 16.6589C8.8214 17.0564 9.8019 17.2596 10.7912 17.2596C13.6444 17.2596 16.3739 15.5459 18.2819 12.5514C18.9444 11.5179 18.9444 9.71589 18.2819 8.68239C18.0081 8.24955 17.7077 7.83438 17.3897 7.44572C17.1601 7.16305 17.2042 6.74788 17.4869 6.50938C17.7696 6.27972 18.1847 6.31505 18.4232 6.60655C18.7677 7.03055 19.1034 7.48988 19.4037 7.96689C20.3401 9.42438 20.3401 11.8006 19.4037 13.2669C17.2484 16.6412 14.1126 18.5846 10.8001 18.5846Z" fill="#404246"/>
<path id="Vector_4" d="M11.4097 14.3884C11.1006 14.3884 10.8179 14.1676 10.7561 13.8496C10.6854 13.4874 10.9239 13.1429 11.2861 13.0811C12.2577 12.9044 13.0704 12.0918 13.2471 11.1201C13.3177 10.7579 13.6622 10.5283 14.0244 10.5901C14.3866 10.6608 14.6251 11.0053 14.5544 11.3674C14.2717 12.8956 13.0527 14.1058 11.5334 14.3884C11.4892 14.3796 11.4539 14.3884 11.4097 14.3884Z" fill="#404246"/>
<path id="Vector_5" d="M1.96693 20.1127C1.7991 20.1127 1.63127 20.0509 1.49877 19.9184C1.2426 19.6622 1.2426 19.2382 1.49877 18.982L8.09727 12.3835C8.35343 12.1274 8.77743 12.1274 9.0336 12.3835C9.28977 12.6397 9.28977 13.0637 9.0336 13.3199L2.4351 19.9184C2.3026 20.0509 2.13477 20.1127 1.96693 20.1127Z" fill="#404246"/>
<path id="Vector_6" d="M13.0353 9.04434C12.8675 9.04434 12.6996 8.98251 12.5671 8.85001C12.311 8.59384 12.311 8.16984 12.5671 7.91367L19.1656 1.31517C19.4218 1.05901 19.8458 1.05901 20.102 1.31517C20.3581 1.57134 20.3581 1.99534 20.102 2.25151L13.5035 8.85001C13.371 8.98251 13.2031 9.04434 13.0353 9.04434Z" fill="#404246"/>
</g>
</g>
</svg>
