<svg width="41" height="41" viewBox="0 0 41 41" fill="none" xmlns="http://www.w3.org/2000/svg">
<circle cx="20.5" cy="20.5" r="20.5" fill="#E6EAEE"/>
<path d="M11.5 27.75C11.09 27.75 10.75 27.41 10.75 27V16C10.75 11.59 12.09 10.25 16.5 10.25H23.5C27.91 10.25 29.25 11.59 29.25 16V26C29.25 26.16 29.25 26.31 29.24 26.47C29.21 26.88 28.84 27.2 28.44 27.17C28.03 27.14 27.71 26.78 27.74 26.37C27.75 26.25 27.75 26.12 27.75 26V16C27.75 12.43 27.08 11.75 23.5 11.75H16.5C12.92 11.75 12.25 12.43 12.25 16V27C12.25 27.41 11.91 27.75 11.5 27.75Z" fill="#404246"/>
<path d="M25 31.75H15C12.66 31.75 10.75 29.84 10.75 27.5V26.85C10.75 24.86 12.37 23.25 14.35 23.25H28.5C28.91 23.25 29.25 23.59 29.25 24V27.5C29.25 29.84 27.34 31.75 25 31.75ZM14.35 24.75C13.19 24.75 12.25 25.69 12.25 26.85V27.5C12.25 29.02 13.48 30.25 15 30.25H25C26.52 30.25 27.75 29.02 27.75 27.5V24.75H14.35Z" fill="#404246"/>
<path d="M24 16.75H16C15.59 16.75 15.25 16.41 15.25 16C15.25 15.59 15.59 15.25 16 15.25H24C24.41 15.25 24.75 15.59 24.75 16C24.75 16.41 24.41 16.75 24 16.75Z" fill="#404246"/>
<path d="M21 20.25H16C15.59 20.25 15.25 19.91 15.25 19.5C15.25 19.09 15.59 18.75 16 18.75H21C21.41 18.75 21.75 19.09 21.75 19.5C21.75 19.91 21.41 20.25 21 20.25Z" fill="#404246"/>
</svg>
