<svg width="24" height="24" viewBox="0 0 24 24" fill="none" xmlns="http://www.w3.org/2000/svg">
<g id="vuesax/outline/moneys">
<g id="moneys">
<path id="Vector" d="M14.8902 18.2197H6.10019C5.58019 18.2197 5.09018 18.1698 4.65018 18.0698C4.42018 18.0398 4.14019 17.9597 3.85019 17.8497C2.52019 17.3497 0.950195 16.1198 0.950195 13.0598V7.90973C0.950195 4.63973 2.83019 2.75977 6.10019 2.75977H14.8902C17.6502 2.75977 19.4302 4.07974 19.9102 6.47974C20.0002 6.91974 20.0402 7.38973 20.0402 7.90973V13.0598C20.0402 16.3498 18.1702 18.2197 14.8902 18.2197ZM6.11017 4.27979C3.65017 4.27979 2.46017 5.46975 2.46017 7.92975V13.0798C2.46017 14.8698 3.09019 15.9698 4.38019 16.4598C4.58019 16.5298 4.7702 16.5797 4.9502 16.6097C5.3302 16.6897 5.70017 16.7297 6.11017 16.7297H14.9002C17.3602 16.7297 18.5502 15.5398 18.5502 13.0798V7.92975C18.5502 7.50975 18.5202 7.13974 18.4502 6.79974C18.1102 5.09974 16.9502 4.27979 14.9002 4.27979H6.11017Z" fill="#54565A"/>
<path id="Vector_2" d="M17.8901 21.2203H9.10009C8.25009 21.2203 7.49008 21.1003 6.84008 20.8503C5.37008 20.3003 4.41007 19.1403 4.08007 17.4803C4.03007 17.2303 4.11009 16.9703 4.29009 16.8003C4.47009 16.6203 4.7301 16.5503 4.9801 16.6103C5.3101 16.6803 5.68009 16.7203 6.10009 16.7203H14.8901C17.3501 16.7203 18.5401 15.5304 18.5401 13.0704V7.92033C18.5401 7.50033 18.5101 7.13033 18.4401 6.79033C18.3901 6.54033 18.4701 6.29033 18.6401 6.11033C18.8201 5.93033 19.0701 5.85032 19.3201 5.91032C21.7201 6.40032 23.0401 8.18033 23.0401 10.9203V16.0704C23.0401 19.3504 21.1701 21.2203 17.8901 21.2203ZM5.9201 18.2203C6.2401 18.8003 6.72009 19.2104 7.38009 19.4504C7.86009 19.6304 8.44007 19.7203 9.11007 19.7203H17.9001C20.3601 19.7203 21.5501 18.5304 21.5501 16.0704V10.9203C21.5501 9.34033 21.0601 8.29034 20.0501 7.74034C20.0501 7.80034 20.0501 7.86033 20.0501 7.92033V13.0704C20.0501 16.3404 18.1701 18.2203 14.9001 18.2203H6.11007C6.04007 18.2203 5.9801 18.2203 5.9201 18.2203Z" fill="#54565A"/>
<path id="Vector_3" d="M10.4999 13.8904C8.62988 13.8904 7.10986 12.3704 7.10986 10.5004C7.10986 8.63037 8.62988 7.11035 10.4999 7.11035C12.3699 7.11035 13.8899 8.63037 13.8899 10.5004C13.8899 12.3704 12.3699 13.8904 10.4999 13.8904ZM10.4999 8.61035C9.45988 8.61035 8.60986 9.46037 8.60986 10.5004C8.60986 11.5404 9.45988 12.3904 10.4999 12.3904C11.5399 12.3904 12.3899 11.5404 12.3899 10.5004C12.3899 9.46037 11.5399 8.61035 10.4999 8.61035Z" fill="#54565A"/>
<path id="Vector_4" d="M4.78027 13.4498C4.37027 13.4498 4.03027 13.1098 4.03027 12.6998V8.2998C4.03027 7.8898 4.37027 7.5498 4.78027 7.5498C5.19027 7.5498 5.53027 7.8898 5.53027 8.2998V12.6998C5.53027 13.1098 5.20027 13.4498 4.78027 13.4498Z" fill="#54565A"/>
<path id="Vector_5" d="M16.21 13.4498C15.8 13.4498 15.46 13.1098 15.46 12.6998V8.2998C15.46 7.8898 15.8 7.5498 16.21 7.5498C16.62 7.5498 16.96 7.8898 16.96 8.2998V12.6998C16.96 13.1098 16.63 13.4498 16.21 13.4498Z" fill="#54565A"/>
</g>
</g>
</svg>
