<svg width="41" height="41" viewBox="0 0 41 41" fill="none" xmlns="http://www.w3.org/2000/svg">
<circle cx="20.5" cy="20.5" r="20.5" fill="#E6EAEE"/>
<path d="M27 22.3604H10C9.59 22.3604 9.25 22.0204 9.25 21.6104C9.25 21.2004 9.59 20.8604 10 20.8604H27C27.41 20.8604 27.75 21.2004 27.75 21.6104C27.75 22.0204 27.41 22.3604 27 22.3604Z" fill="#404246"/>
<path d="M23.22 30.7498H13.78C10.35 30.7498 9.25 29.6598 9.25 26.2698V19.2798C9.25 16.5898 9.86002 14.9998 12.96 14.8198C13.22 14.8098 13.49 14.7998 13.78 14.7998H23.22C26.65 14.7998 27.75 15.8898 27.75 19.2798V26.4298C27.71 29.6998 26.61 30.7498 23.22 30.7498ZM13.78 16.2998C13.51 16.2998 13.26 16.3098 13.03 16.3198C11.24 16.4298 10.75 16.8098 10.75 19.2798V26.2698C10.75 28.8298 11.17 29.2498 13.78 29.2498H23.22C25.8 29.2498 26.22 28.8498 26.25 26.4198V19.2798C26.25 16.7198 25.83 16.2998 23.22 16.2998H13.78Z" fill="#404246"/>
<path d="M27 27.18C26.81 27.18 26.62 27.11 26.49 26.98C26.34 26.84 26.25 26.64 26.25 26.43V19.28C26.25 16.72 25.83 16.3 23.22 16.3H13.78C13.51 16.3 13.26 16.31 13.03 16.32C12.83 16.33 12.63 16.25 12.48 16.11C12.33 15.97 12.25 15.77 12.25 15.56C12.29 12.3 13.39 11.25 16.78 11.25H26.22C29.65 11.25 30.75 12.34 30.75 15.73V22.72C30.75 25.41 30.14 27 27.04 27.18C27.03 27.18 27.01 27.18 27 27.18ZM13.78 14.8H23.22C26.65 14.8 27.75 15.89 27.75 19.28V25.6C28.91 25.39 29.25 24.79 29.25 22.72V15.73C29.25 13.17 28.83 12.75 26.22 12.75H16.78C14.5 12.75 13.91 13.06 13.78 14.8Z" fill="#404246"/>
<path d="M14.9603 27.5596H13.2402C12.8302 27.5596 12.4902 27.2196 12.4902 26.8096C12.4902 26.3996 12.8302 26.0596 13.2402 26.0596H14.9603C15.3703 26.0596 15.7103 26.3996 15.7103 26.8096C15.7103 27.2196 15.3803 27.5596 14.9603 27.5596Z" fill="#404246"/>
<path d="M20.5499 27.5596H17.1099C16.6999 27.5596 16.3599 27.2196 16.3599 26.8096C16.3599 26.3996 16.6999 26.0596 17.1099 26.0596H20.5499C20.9599 26.0596 21.2999 26.3996 21.2999 26.8096C21.2999 27.2196 20.9699 27.5596 20.5499 27.5596Z" fill="#404246"/>
</svg>
