<svg width="41" height="41" viewBox="0 0 41 41" fill="none" xmlns="http://www.w3.org/2000/svg">
<circle cx="20.5" cy="20.5" r="20.5" fill="#E6EAEE"/>
<path d="M26.5002 29.25H22.5002C22.0902 29.25 21.7502 28.91 21.7502 28.5C21.7502 28.09 22.0902 27.75 22.5002 27.75H26.5002C26.9102 27.75 27.2502 28.09 27.2502 28.5C27.2502 28.91 26.9102 29.25 26.5002 29.25Z" fill="#404246"/>
<path d="M24.5002 31.25C24.0902 31.25 23.7502 30.91 23.7502 30.5V26.5C23.7502 26.09 24.0902 25.75 24.5002 25.75C24.9102 25.75 25.2502 26.09 25.2502 26.5V30.5C25.2502 30.91 24.9102 31.25 24.5002 31.25Z" fill="#404246"/>
<path d="M20.1601 20.62C20.1301 20.62 20.1101 20.62 20.0801 20.62C20.0301 20.61 19.9601 20.61 19.9001 20.62C17.0001 20.53 14.8101 18.25 14.8101 15.44C14.8001 14.06 15.3401 12.76 16.3201 11.78C17.3001 10.8 18.6001 10.25 19.9901 10.25C22.8501 10.25 25.1801 12.58 25.1801 15.44C25.1801 18.25 22.9901 20.52 20.1901 20.62C20.1801 20.62 20.1701 20.62 20.1601 20.62ZM19.9901 11.75C19.0001 11.75 18.0801 12.14 17.3801 12.83C16.6901 13.53 16.3101 14.45 16.3101 15.43C16.3101 17.43 17.8701 19.05 19.8601 19.11C19.9201 19.1 20.0501 19.1 20.1801 19.11C22.1501 19.02 23.6801 17.41 23.6801 15.43C23.6801 13.41 22.0201 11.75 19.9901 11.75Z" fill="#404246"/>
<path d="M19.9902 31.5597C17.9502 31.5597 16.0202 31.0297 14.5602 30.0497C13.1702 29.1197 12.4102 27.8497 12.4102 26.4797C12.4102 25.1097 13.1802 23.8497 14.5602 22.9297C17.5502 20.9297 22.4102 20.9297 25.4002 22.9297C25.7402 23.1597 25.8402 23.6297 25.6102 23.9697C25.3802 24.3197 24.9102 24.4097 24.5702 24.1797C22.0802 22.5197 17.8802 22.5197 15.3902 24.1797C14.4302 24.8197 13.9102 25.6297 13.9102 26.4797C13.9102 27.3297 14.4302 28.1597 15.3902 28.7997C16.6002 29.6097 18.2302 30.0497 19.9802 30.0497C20.3902 30.0497 20.7302 30.3897 20.7302 30.7997C20.7302 31.2097 20.4002 31.5597 19.9902 31.5597Z" fill="#404246"/>
</svg>
