<svg width="124" height="124" viewBox="0 0 124 124" fill="none" xmlns="http://www.w3.org/2000/svg">
<g id="Group">
<path id="Vector" d="M28.8625 16.1917C28.4973 14.0379 28.4553 12.3381 28.7332 11.0988C29.0176 9.8369 29.6235 8.92884 30.5461 8.3811C31.4655 7.83821 32.5513 7.74126 33.7922 8.09026C35.0331 8.4425 36.5373 9.31016 38.2969 10.6916L40.0096 9.94516L41.7385 9.25684C41.9405 7.08526 42.3395 5.43719 42.9261 4.31585C43.5271 3.16543 44.3544 2.4448 45.3853 2.16042C46.4129 1.87443 47.4857 2.06348 48.5942 2.72594C49.6993 3.38678 50.9273 4.61476 52.27 6.41149L54.1168 6.13519L55.9491 5.91707C56.7053 3.86828 57.5164 2.37693 58.3711 1.44626C59.2452 0.496189 60.2276 0.0130765 61.3053 0.000150436C62.3814 -0.00954413 63.3719 0.449333 64.2735 1.37355C65.1735 2.29615 66.046 3.80527 66.8846 5.89445L68.8865 6.12388L70.8916 6.4228C72.2424 4.62284 73.4801 3.3884 74.5982 2.72432C75.7131 2.06025 76.7876 1.87282 77.8168 2.16042C78.8493 2.45126 79.6717 3.1735 80.2744 4.32554C80.8625 5.45334 81.2616 7.11273 81.4636 9.29239L83.1617 9.97262L84.868 10.7191C86.6421 9.32148 88.1577 8.44573 89.4018 8.09188C90.6346 7.74288 91.7172 7.84305 92.6382 8.39079C93.564 8.94177 94.1732 9.85144 94.4494 11.1117L94.4801 11.2943C94.7112 12.5239 94.6482 14.1704 94.2863 16.2256L95.7469 17.3179L97.1736 18.4586C99.2095 17.5877 100.877 17.1418 102.168 17.124C103.452 17.1078 104.474 17.4795 105.22 18.2437L105.233 18.2566C105.97 19.0209 106.314 20.042 106.264 21.3185L106.261 21.3686C106.201 22.6273 105.726 24.2285 104.84 26.1658L105.992 27.62L107.111 29.1388C109.326 28.8189 111.058 28.8156 112.294 29.1275C113.546 29.4442 114.44 30.0727 114.965 31.005C115.487 31.9324 115.559 33.015 115.178 34.2462C114.803 35.458 113.921 36.9009 112.536 38.5732L113.263 40.2584L113.95 42.0164C116.167 42.2814 117.842 42.7306 118.969 43.3591C120.103 43.9909 120.806 44.8278 121.067 45.8619L121.116 46.1188C121.29 47.0818 121.061 48.0642 120.429 49.0611L120.334 49.1984C119.642 50.2277 118.442 51.3506 116.74 52.556L117.002 54.3721L117.212 56.2399C119.295 57.0721 120.806 57.9429 121.733 58.8429C122.656 59.7397 123.115 60.7269 123.105 61.7949C123.095 62.8759 122.612 63.8582 121.662 64.7308C120.735 65.5871 119.242 66.3966 117.19 67.156L116.98 68.935L116.705 70.7769C118.544 72.139 119.801 73.3832 120.471 74.4964C121.14 75.6064 121.328 76.6825 121.04 77.715C120.749 78.7588 120.027 79.5861 118.878 80.1839L118.687 80.2711C117.555 80.8124 115.941 81.1808 113.848 81.3682L113.186 83.0406L112.459 84.7113C113.881 86.5048 114.771 88.0316 115.131 89.2855C115.488 90.5312 115.395 91.6235 114.844 92.5509C114.299 93.4751 113.383 94.0859 112.108 94.3703C110.851 94.6498 109.122 94.6029 106.928 94.2265L105.823 95.7049L104.655 97.1655C105.535 99.2353 105.984 100.925 106.001 102.224C106.015 103.524 105.64 104.548 104.871 105.294C104.105 106.043 103.071 106.39 101.78 106.338C100.51 106.285 98.8815 105.797 96.8941 104.881L95.4431 106.028L93.9599 107.12C94.2846 109.345 94.2895 111.084 93.9776 112.328C93.6642 113.583 93.0324 114.475 92.1001 115L91.9547 115.075C91.0531 115.53 90.0158 115.576 88.8508 115.212C87.6406 114.834 86.1897 113.947 84.5077 112.549L82.8305 113.273L81.0839 113.955C80.8205 116.173 80.3713 117.851 79.7428 118.978C79.1143 120.103 78.2773 120.803 77.24 121.069C76.1962 121.337 75.1266 121.127 74.0408 120.439L73.905 120.345C72.8726 119.65 71.748 118.45 70.541 116.744L68.7265 117.005L66.8619 117.216C66.0282 119.301 65.1573 120.811 64.2573 121.738C63.3622 122.661 62.3782 123.115 61.3134 123.105C60.2341 123.095 59.2549 122.611 58.3873 121.665C57.5358 120.738 56.7279 119.243 55.9749 117.193L54.2816 116.996L52.6239 116.753C51.3684 118.534 50.2051 119.765 49.1435 120.439C48.0626 121.126 46.9929 121.334 45.9524 121.069C44.9199 120.806 44.0846 120.109 43.456 118.986C42.8291 117.865 42.3816 116.199 42.1166 113.994L40.3586 113.304L38.6572 112.575C36.9914 113.955 35.5517 114.836 34.3464 115.21C33.1103 115.595 32.0197 115.524 31.0874 114.999C30.1567 114.475 29.5298 113.585 29.2083 112.329C28.8851 111.097 28.8819 109.369 29.1921 107.159L27.6733 106.038L26.2029 104.874C24.1962 105.799 22.5449 106.287 21.2619 106.338C19.971 106.39 18.9385 106.041 18.171 105.293C17.4019 104.541 17.0287 103.512 17.048 102.215C17.069 100.917 17.5295 99.2224 18.4263 97.1413L17.2839 95.7081L16.1836 94.2346C14.0233 94.6046 12.3171 94.6498 11.073 94.3719C9.8062 94.0907 8.8933 93.4816 8.34555 92.559C7.80104 91.638 7.70248 90.549 8.05633 89.3049L8.0935 89.1885C8.46835 87.9702 9.33117 86.4983 10.6787 84.7872L9.93708 83.0858L9.25361 81.3602C7.08203 81.1582 5.43072 80.7607 4.30938 80.1726C3.16058 79.5715 2.43672 78.7475 2.15234 77.7118C1.86635 76.6858 2.0554 75.6129 2.71624 74.5029C3.37709 73.3977 4.6083 72.1681 6.40826 70.8238C6.21921 69.5732 6.06248 68.405 5.91545 67.1496C3.86182 66.3901 2.36886 65.579 1.44141 64.7259C0.494574 63.855 0.00984552 62.8726 0.000150955 61.7933C-0.00954361 60.7253 0.447717 59.7413 1.37032 58.8445C2.29938 57.9446 3.8085 57.0753 5.89121 56.2448L6.10288 54.3721L6.37109 52.5188C4.6293 51.2731 3.42395 50.1162 2.75502 49.0546C2.07156 47.9689 1.86312 46.9041 2.12972 45.8651C2.39471 44.8294 3.08949 43.9973 4.20921 43.3688C5.31924 42.7419 6.96893 42.2927 9.1502 42.0261L9.85629 40.2277L10.6044 38.4973C9.2423 36.846 8.37626 35.4176 8.01109 34.23C7.63462 33.0085 7.71056 31.9308 8.23568 31.0001C8.75919 30.0678 9.64624 29.4409 10.8888 29.1275C12.1119 28.8189 13.8198 28.8189 15.9994 29.1323L17.1014 27.6345L18.2437 26.19C17.326 24.2139 16.8396 22.5901 16.7847 21.3282C16.7297 20.0404 17.0739 19.0112 17.822 18.2453C18.5685 17.4811 19.588 17.1078 20.8758 17.124C22.17 17.1401 23.8536 17.5909 25.9153 18.4731L27.3792 17.3017L28.8625 16.1917ZM78.3856 38.6281C79.481 37.2144 81.0499 36.3758 82.6899 36.1706L82.8871 36.156C84.4689 36.0058 86.1089 36.4323 87.4564 37.4793L87.5873 37.5908C88.9155 38.6798 89.7072 40.197 89.9059 41.7837L89.9205 41.9808C90.0707 43.5611 89.6442 45.2027 88.5972 46.5502C80.4763 56.2965 73.0568 67.0898 64.9877 76.933C63.3234 78.8509 61.0597 79.9464 58.7104 80.1758C56.3643 80.4069 53.9342 79.767 51.9307 78.2127C46.1834 73.4688 40.5105 68.2919 34.8715 63.3832C34.7342 63.2636 34.6178 63.1312 34.5209 62.9874C33.5918 61.7885 33.1362 60.3407 33.1556 58.9076C33.1766 57.4017 33.713 55.9055 34.7535 54.7098C35.7989 53.5093 37.2047 52.7709 38.6847 52.5431L38.7558 52.5334C40.21 52.3266 41.7417 52.6109 43.0812 53.4334L43.3591 53.6369L57.3079 65.7794L78.3856 38.6281ZM83.1876 40.2423C82.5898 40.3166 82.0178 40.6204 81.6235 41.1293L59.1402 70.0935C58.397 70.9466 57.1011 71.0371 56.248 70.2938L40.8062 56.8458C40.3505 56.6067 39.8383 56.5275 39.3455 56.5922L39.3084 56.5986C38.759 56.6827 38.2323 56.9573 37.8461 57.4017C37.4551 57.8525 37.2499 58.4083 37.2434 58.956C37.237 59.4618 37.3872 59.974 37.6942 60.4037L54.4238 74.9682C55.5823 75.8666 56.9735 76.2366 58.3097 76.1057C59.6492 75.9765 60.9386 75.3479 61.8951 74.2492C69.473 65.2042 78.4437 53.6095 85.3592 44.0329C85.734 43.5497 85.894 42.9681 85.8536 42.409L85.8342 42.2814C85.7631 41.7159 85.4884 41.173 85.0263 40.7819L84.9391 40.7173C84.456 40.3425 83.8743 40.1825 83.3152 40.2229L83.1876 40.2423ZM61.5526 13.1169C74.9278 13.1169 87.0396 18.5394 95.8035 27.3033C104.567 36.0672 109.99 48.1789 109.99 61.5542C109.99 74.9294 104.567 87.0412 95.8035 95.8051C87.0396 104.569 74.9278 109.991 61.5526 109.991C48.1773 109.991 36.0655 104.569 27.3017 95.8051C18.5378 87.0412 13.1153 74.9294 13.1153 61.5542C13.1153 48.1789 18.5378 36.0672 27.3017 27.3033C36.0655 18.5394 48.1773 13.1169 61.5526 13.1169ZM92.9016 30.2052C84.8809 22.1845 73.7952 17.2209 61.5526 17.2209C49.3099 17.2209 38.2242 22.1845 30.2036 30.2052C22.1829 38.2258 17.2193 49.3116 17.2193 61.5542C17.2193 73.7968 22.1829 84.8825 30.2036 92.9032C38.2242 100.924 49.3099 105.887 61.5526 105.887C73.7952 105.887 84.8809 100.924 92.9016 92.9032C100.922 84.8825 105.886 73.7968 105.886 61.5542C105.886 49.3116 100.922 38.2258 92.9016 30.2052ZM32.7145 12.0408C32.5286 12.944 32.6628 14.4935 33.1265 16.6796C33.2929 17.4681 32.9827 18.3148 32.2766 18.7963C31.4477 19.365 30.6447 19.9499 29.8804 20.5397C29.1226 21.1246 28.3826 21.7289 27.6733 22.3429C27.0771 22.9165 26.1658 23.0958 25.3757 22.7226C23.314 21.7467 21.8097 21.2409 20.8758 21.2135C20.9356 22.128 21.4704 23.5676 22.4705 25.5179C22.8583 26.2417 22.7872 27.1579 22.2217 27.8171C21.5819 28.562 20.9582 29.3327 20.3555 30.1195C19.7528 30.9097 19.1954 31.6788 18.6864 32.4252C18.2582 33.1249 17.4277 33.5256 16.5714 33.3705C14.3998 32.9714 12.8519 32.8776 11.9406 33.0893C12.2218 33.9344 13.062 35.1446 14.4547 36.7102C15.0607 37.3081 15.2513 38.2484 14.8603 39.0579C14.4208 39.9692 14.0104 40.8821 13.6404 41.7821C13.272 42.674 12.9311 43.5659 12.6225 44.4481C12.4108 45.2705 11.6983 45.9088 10.8047 45.9815C8.58146 46.164 7.06103 46.4807 6.2483 46.9186C6.74595 47.6764 7.91092 48.6588 9.73672 49.8512C10.404 50.2939 10.7805 51.1083 10.6254 51.9436C10.4396 52.9454 10.2812 53.9294 10.1584 54.8859C10.0405 55.7988 9.94354 56.7651 9.87245 57.783C9.84175 58.5989 9.32148 59.3519 8.50552 59.6395C6.35655 60.4021 4.93953 61.1066 4.25606 61.7481C4.94115 62.3556 6.31616 62.9987 8.37141 63.6708C9.18898 63.8906 9.81913 64.6063 9.88376 65.4982C9.9597 66.5065 10.0583 67.4679 10.1762 68.363L10.1843 68.4212C10.3119 69.3809 10.4735 70.3617 10.6626 71.3489C10.8064 72.1213 10.4994 72.9421 9.81267 73.4171C7.92869 74.7145 6.73787 75.768 6.24345 76.5727C7.06587 76.9847 8.58792 77.2529 10.8015 77.3692C11.6175 77.4016 12.3704 77.9234 12.6548 78.741C12.9747 79.6507 13.3334 80.5814 13.7212 81.5153C14.0864 82.391 14.4903 83.2829 14.9282 84.1829C15.2707 84.8955 15.1851 85.7744 14.6389 86.4127C13.1702 88.1367 12.2945 89.4551 12.0166 90.3567L12.0085 90.3923C12.9198 90.5781 14.4774 90.4359 16.67 89.9689C17.4584 89.8025 18.3051 90.1127 18.7866 90.8188C19.3553 91.6461 19.9354 92.4459 20.5219 93.2069C21.123 93.9873 21.7418 94.7467 22.3704 95.4706C22.8842 96.0668 23.028 96.9345 22.6677 97.6907C21.6723 99.7734 21.1618 101.297 21.1359 102.249C22.0634 102.199 23.5434 101.659 25.5696 100.625C26.287 100.265 27.1821 100.344 27.83 100.898C28.5813 101.543 29.3601 102.174 30.1583 102.784C30.9177 103.364 31.7191 103.94 32.5593 104.508C33.2056 104.952 33.5724 105.747 33.4254 106.568C33.0279 108.786 32.9423 110.365 33.1669 111.287C34.0394 111.001 35.3013 110.116 36.9445 108.639C37.544 108.107 38.4278 107.952 39.1969 108.319C40.0678 108.736 40.9726 109.137 41.9049 109.52C42.7176 109.854 43.6548 110.205 44.6937 110.562C45.4418 110.822 46.0073 111.502 46.0719 112.342C46.2513 114.582 46.5631 116.117 46.9978 116.941C47.7669 116.43 48.7509 115.248 49.9417 113.404C50.3796 112.73 51.1939 112.346 52.0341 112.499C52.9535 112.67 53.8825 112.819 54.8116 112.94C55.697 113.055 56.6326 113.152 57.6214 113.225C58.4309 113.284 59.1645 113.822 59.4262 114.643C60.1016 116.747 60.7511 118.151 61.3603 118.846C62.0033 118.158 62.7062 116.742 63.4672 114.601C63.7322 113.853 64.4221 113.294 65.264 113.239C66.3029 113.166 67.2853 113.068 68.2127 112.95C69.1547 112.829 70.1193 112.675 71.1033 112.493C71.8983 112.338 72.7433 112.667 73.2103 113.386C74.3979 115.22 75.3819 116.4 76.1477 116.921L76.193 116.947C76.6325 116.122 76.9475 114.574 77.1269 112.31C77.1964 111.525 77.7118 110.811 78.5051 110.538C79.4212 110.221 80.3471 109.87 81.2761 109.489C82.1567 109.127 83.0115 108.747 83.8387 108.355C84.5852 107.93 85.5498 108.007 86.222 108.612C87.8733 110.101 89.1384 110.992 90.0142 111.284C90.2291 110.36 90.1321 108.78 89.7201 106.548C89.5812 105.774 89.8946 104.957 90.5862 104.488C91.352 103.968 92.147 103.394 92.9581 102.774C93.7482 102.171 94.5205 101.544 95.2638 100.908C95.8762 100.389 96.7664 100.255 97.5242 100.643C99.5132 101.659 100.979 102.195 101.913 102.249C101.893 101.308 101.391 99.7895 100.408 97.7052C100.077 96.9943 100.168 96.1234 100.714 95.4932C101.35 94.7581 101.977 93.9922 102.585 93.2037C103.165 92.4524 103.738 91.6623 104.299 90.8463C104.748 90.158 105.589 89.7799 106.44 89.9609C108.678 90.4359 110.261 90.5781 111.184 90.389C110.916 89.4761 110.035 88.1431 108.542 86.3933C107.994 85.7938 107.836 84.8987 108.211 84.1231C108.625 83.2668 109.025 82.3781 109.402 81.47C109.783 80.5523 110.135 79.6394 110.449 78.7459C110.717 77.9816 111.426 77.4161 112.284 77.3757C114.488 77.2674 116.018 77.0089 116.871 76.6114L116.938 76.5727C116.43 75.7632 115.235 74.7065 113.349 73.4139C112.67 72.9744 112.291 72.1519 112.451 71.3101C112.64 70.3164 112.8 69.3421 112.924 68.405C113.044 67.4969 113.145 66.5291 113.221 65.5047C113.284 64.6984 113.822 63.9697 114.64 63.708C116.749 63.0245 118.158 62.3685 118.852 61.7497C118.169 61.1066 116.749 60.3973 114.598 59.633C113.85 59.368 113.291 58.6781 113.236 57.8363C113.163 56.7958 113.065 55.8134 112.947 54.8859C112.826 53.9439 112.672 52.9777 112.489 51.9937C112.334 51.1988 112.664 50.3537 113.383 49.8868C115.214 48.6992 116.39 47.72 116.91 46.9558L116.938 46.9089C116.112 46.4694 114.567 46.1544 112.305 45.9734C111.52 45.9039 110.806 45.3885 110.533 44.5951C110.216 43.6758 109.861 42.7435 109.479 41.8128C109.122 40.9468 108.733 40.0742 108.313 39.1985C107.918 38.4601 108.006 37.5213 108.597 36.8637C110.075 35.2221 110.959 33.9618 111.25 33.0909C110.331 32.876 108.755 32.9681 106.539 33.3769C105.765 33.5159 104.947 33.2024 104.478 32.5109C103.952 31.7337 103.367 30.9274 102.738 30.105C102.15 29.3359 101.557 28.6007 100.966 27.9092C100.358 27.2984 100.181 26.3435 100.591 25.534C101.594 23.5612 102.123 22.1183 102.174 21.2135C101.253 21.2409 99.7669 21.7386 97.7262 22.7113C97.012 23.0425 96.1379 22.9536 95.5062 22.4059C94.7807 21.7758 94.0245 21.1569 93.2457 20.5559C92.5008 19.9806 91.7398 19.4248 90.9675 18.89C90.2339 18.4521 89.8251 17.578 90.0158 16.6974C90.4828 14.5485 90.6346 13.0135 90.4731 12.1006L90.4585 12.0489C89.5731 12.3171 88.2805 13.167 86.5904 14.5969C85.9877 15.1835 85.0603 15.3596 84.2621 14.9702C83.3589 14.5307 82.4653 14.1219 81.5912 13.7567C80.6912 13.3803 79.7703 13.0232 78.8347 12.6936C78.0769 12.4221 77.5147 11.7176 77.4726 10.8645C77.3579 8.61215 77.0849 7.07072 76.6664 6.24345C75.873 6.72333 74.8293 7.88991 73.5399 9.74319C73.1052 10.4428 72.2699 10.8403 71.4135 10.6771C70.3698 10.4767 69.3486 10.3087 68.3565 10.1794C67.3871 10.0518 66.3627 9.94839 65.2882 9.87245C64.5046 9.81105 63.7888 9.3037 63.5076 8.51844C62.7353 6.3614 62.0179 4.9363 61.3603 4.24798C60.7495 4.92984 60.1016 6.30808 59.4278 8.37302C59.2081 9.1906 58.4923 9.82074 57.6004 9.88537C56.576 9.96131 55.5936 10.0647 54.663 10.1891C53.7177 10.3135 52.7434 10.4751 51.7465 10.6658C50.9742 10.8096 50.1534 10.5026 49.6783 9.8159C48.3825 7.93677 47.329 6.74757 46.5244 6.25314C46.1188 7.06749 45.8522 8.55883 45.7326 10.7272C45.7326 11.5706 45.2075 12.3623 44.3657 12.6596C43.4205 12.9925 42.4866 13.3496 41.5801 13.7293C40.6995 14.096 39.8028 14.5032 38.9012 14.9411C38.1919 15.282 37.3178 15.2012 36.6795 14.6599C34.9394 13.1799 33.6128 12.3058 32.7145 12.0408ZM32.6304 11.9067C32.5884 11.9309 32.6127 11.9277 32.6482 11.9293C32.6579 11.9018 32.6676 11.8841 32.6304 11.9067ZM46.4743 6.10288C46.429 6.11419 46.4533 6.11742 46.4856 6.12711C46.5017 6.10449 46.5131 6.09157 46.4743 6.10288ZM61.349 4.08803C61.3102 4.08803 61.328 4.09772 61.3538 4.11388C61.3716 4.09772 61.3829 4.08803 61.349 4.08803ZM76.7116 6.10288C76.6729 6.09318 76.6858 6.10611 76.7003 6.13035C76.731 6.11904 76.7552 6.11581 76.7116 6.10288ZM90.5538 11.9002C90.5151 11.8776 90.5231 11.8921 90.5361 11.9196C90.5732 11.9212 90.5991 11.9261 90.5538 11.9002ZM102.289 21.1004C102.252 21.0632 102.26 21.0858 102.266 21.1198C102.304 21.1295 102.33 21.1408 102.289 21.1004ZM111.391 33.0085C111.368 32.9681 111.37 32.9891 111.368 33.0215C111.396 33.036 111.412 33.0473 111.391 33.0085ZM117.093 46.8734C117.083 46.833 117.078 46.8491 117.07 46.875L117.101 46.9025L117.093 46.8734ZM119.017 61.7626C119.017 61.7206 119.007 61.7351 118.99 61.7578C119.007 61.7885 119.017 61.8127 119.017 61.7626ZM117.098 76.626C117.109 76.584 117.096 76.5969 117.072 76.6163C117.081 76.6502 117.085 76.6745 117.098 76.626ZM111.318 90.4666C111.339 90.4294 111.323 90.4375 111.295 90.4472C111.299 90.4811 111.295 90.5054 111.318 90.4666ZM90.0966 111.426C90.137 111.404 90.1144 111.405 90.082 111.404L90.0627 111.446L90.0966 111.426ZM76.2285 117.11C76.2738 117.099 76.2527 117.094 76.222 117.085C76.1994 117.109 76.1817 117.122 76.2285 117.11ZM61.3457 119.017C61.3877 119.017 61.3732 119.009 61.3506 118.991C61.3167 119.009 61.294 119.017 61.3457 119.017ZM46.9638 117.11C47.0123 117.122 46.9946 117.109 46.9703 117.086C46.9396 117.096 46.9202 117.099 46.9638 117.11ZM33.0909 111.425C33.1297 111.447 33.1168 111.428 33.1039 111.399C33.0748 111.405 33.0538 111.404 33.0909 111.425ZM21.0293 102.362C21.0681 102.402 21.0567 102.375 21.0503 102.338C21.0147 102.334 20.9905 102.325 21.0293 102.362ZM11.8711 90.4747C11.8954 90.5151 11.8922 90.4908 11.8922 90.4585C11.8647 90.4456 11.8485 90.4375 11.8711 90.4747ZM6.0948 76.6228C6.10773 76.6696 6.11096 76.6454 6.11904 76.6114C6.09642 76.5953 6.08349 76.584 6.0948 76.6228ZM4.08803 61.761C4.08803 61.8127 4.09772 61.7885 4.11549 61.7561C4.09772 61.7335 4.08803 61.719 4.08803 61.761ZM6.08834 46.8847C6.07864 46.917 6.09157 46.9041 6.11257 46.8847C6.10288 46.8604 6.09803 46.8459 6.08834 46.8847ZM11.792 33.0101C11.7726 33.0425 11.7887 33.0312 11.8146 33.0166C11.8146 32.9908 11.813 32.9762 11.792 33.0101ZM20.7562 21.0988C20.7239 21.1327 20.7449 21.123 20.7772 21.1149C20.7821 21.0842 20.7869 21.0664 20.7562 21.0988Z" fill="#45833B"/>
</g>
</svg>
