<svg xmlns="http://www.w3.org/2000/svg" width="24" height="25" viewBox="0 0 24 25" fill="none">
  <path d="M8.74945 13.3085V12.1014L7.8959 12.955L7.1759 13.675L7.52945 14.0285L7.1759 13.675C7.08116 13.7697 6.91774 13.7697 6.82301 13.675C6.72827 13.5802 6.72827 13.4168 6.82301 13.3221L8.82301 11.3221C8.89252 11.2526 9.00567 11.2309 9.09249 11.2681L9.09952 11.2711L9.10663 11.2739C9.18414 11.3044 9.24945 11.3919 9.24945 11.4985V17.4985C9.24945 17.6324 9.13331 17.7485 8.99945 17.7485C8.8656 17.7485 8.74945 17.6324 8.74945 17.4985V13.3085Z" fill="#5D5BCE" stroke="#1E1942"/>
  <path d="M10.9995 13.7514C10.9349 13.7514 10.8743 13.7291 10.823 13.6779L8.82301 11.6779C8.72827 11.5831 8.72827 11.4197 8.82301 11.325C8.91774 11.2302 9.08116 11.2302 9.1759 11.325L11.1759 13.325C11.2706 13.4197 11.2706 13.5831 11.1759 13.6779C11.1246 13.7291 11.064 13.7514 10.9995 13.7514Z" fill="#5D5BCE" stroke="#1E1942"/>
  <path d="M15 22.75H9C6.3424 22.75 4.56492 22.1803 3.4423 21.0577C2.31968 19.9351 1.75 18.1576 1.75 15.5V9.5C1.75 6.8424 2.31968 5.06492 3.4423 3.9423C4.56492 2.81968 6.3424 2.25 9 2.25H14C14.1339 2.25 14.25 2.36614 14.25 2.5C14.25 2.63386 14.1339 2.75 14 2.75H9C6.65972 2.75 4.92432 3.16107 3.7927 4.2927C2.66107 5.42432 2.25 7.15972 2.25 9.5V15.5C2.25 17.8403 2.66107 19.5757 3.7927 20.7073C4.92432 21.8389 6.65972 22.25 9 22.25H15C17.3403 22.25 19.0757 21.8389 20.2073 20.7073C21.3389 19.5757 21.75 17.8403 21.75 15.5V10.5C21.75 10.3661 21.8661 10.25 22 10.25C22.1339 10.25 22.25 10.3661 22.25 10.5V15.5C22.25 18.1576 21.6803 19.9351 20.5577 21.0577C19.4351 22.1803 17.6576 22.75 15 22.75Z" fill="#5D5BCE" stroke="#1E1942"/>
  <path d="M13.8928 2.2739L13.8999 2.27111L13.907 2.2681C13.9871 2.23374 14.0949 2.24666 14.1815 2.32712L22.1764 10.3221C22.246 10.3916 22.2676 10.5047 22.2304 10.5916C22.1876 10.6914 22.096 10.7485 22 10.7485H18C16.3359 10.7485 15.315 10.4214 14.6961 9.80247C14.0771 9.18355 13.75 8.16262 13.75 6.49852V2.49852C13.75 2.39187 13.8153 2.30435 13.8928 2.2739ZM15.1036 3.95497L14.25 3.10142V4.30852V6.49852C14.25 7.78886 14.4062 8.79681 15.0539 9.44458C15.7017 10.0923 16.7097 10.2485 18 10.2485H20.19H21.3971L20.5436 9.39497L15.1036 3.95497Z" fill="#5D5BCE" stroke="#1E1942"/>
</svg>