<svg width="41" height="41" viewBox="0 0 41 41" fill="none" xmlns="http://www.w3.org/2000/svg">
<circle cx="20.5" cy="20.5" r="20.5" fill="#E6EAEE"/>
<path d="M25.9998 16.9098C25.9698 16.9098 25.9498 16.9098 25.9198 16.9098H25.8698C23.9798 16.8498 22.5698 15.3898 22.5698 13.5898C22.5698 11.7498 24.0698 10.2598 25.8998 10.2598C27.7298 10.2598 29.2298 11.7598 29.2298 13.5898C29.2198 15.3998 27.8098 16.8598 26.0098 16.9198C26.0098 16.9098 26.0098 16.9098 25.9998 16.9098ZM25.8998 11.7498C24.8898 11.7498 24.0698 12.5698 24.0698 13.5798C24.0698 14.5698 24.8398 15.3698 25.8298 15.4098C25.8398 15.3998 25.9198 15.3998 26.0098 15.4098C26.9798 15.3598 27.7298 14.5598 27.7398 13.5798C27.7398 12.5698 26.9198 11.7498 25.8998 11.7498Z" fill="#404246"/>
<path d="M26.01 24.2797C25.62 24.2797 25.23 24.2497 24.84 24.1797C24.43 24.1097 24.16 23.7197 24.23 23.3097C24.3 22.8997 24.69 22.6297 25.1 22.6997C26.33 22.9097 27.63 22.6797 28.5 22.0997C28.97 21.7897 29.22 21.3997 29.22 21.0097C29.22 20.6197 28.96 20.2397 28.5 19.9297C27.63 19.3497 26.31 19.1197 25.07 19.3397C24.66 19.4197 24.27 19.1397 24.2 18.7297C24.13 18.3197 24.4 17.9297 24.81 17.8597C26.44 17.5697 28.13 17.8797 29.33 18.6797C30.21 19.2697 30.72 20.1097 30.72 21.0097C30.72 21.8997 30.22 22.7497 29.33 23.3497C28.42 23.9497 27.24 24.2797 26.01 24.2797Z" fill="#404246"/>
<path d="M13.97 16.91C13.96 16.91 13.95 16.91 13.95 16.91C12.15 16.85 10.74 15.39 10.73 13.59C10.73 11.75 12.23 10.25 14.06 10.25C15.89 10.25 17.39 11.75 17.39 13.58C17.39 15.39 15.98 16.85 14.18 16.91L13.97 16.16L14.04 16.91C14.02 16.91 13.99 16.91 13.97 16.91ZM14.07 15.41C14.13 15.41 14.18 15.41 14.24 15.42C15.13 15.38 15.91 14.58 15.91 13.59C15.91 12.58 15.09 11.76 14.08 11.76C13.07 11.76 12.25 12.58 12.25 13.59C12.25 14.57 13.01 15.36 13.98 15.42C13.99 15.41 14.03 15.41 14.07 15.41Z" fill="#404246"/>
<path d="M13.96 24.2797C12.73 24.2797 11.55 23.9497 10.64 23.3497C9.76 22.7597 9.25 21.9097 9.25 21.0097C9.25 20.1197 9.76 19.2697 10.64 18.6797C11.84 17.8797 13.53 17.5697 15.16 17.8597C15.57 17.9297 15.84 18.3197 15.77 18.7297C15.7 19.1397 15.31 19.4197 14.9 19.3397C13.66 19.1197 12.35 19.3497 11.47 19.9297C11 20.2397 10.75 20.6197 10.75 21.0097C10.75 21.3997 11.01 21.7897 11.47 22.0997C12.34 22.6797 13.64 22.9097 14.87 22.6997C15.28 22.6297 15.67 22.9097 15.74 23.3097C15.81 23.7197 15.54 24.1097 15.13 24.1797C14.74 24.2497 14.35 24.2797 13.96 24.2797Z" fill="#404246"/>
<path d="M19.9998 24.3805C19.9698 24.3805 19.9498 24.3805 19.9198 24.3805H19.8698C17.9798 24.3205 16.5698 22.8605 16.5698 21.0605C16.5698 19.2205 18.0698 17.7305 19.8998 17.7305C21.7298 17.7305 23.2298 19.2305 23.2298 21.0605C23.2198 22.8705 21.8098 24.3305 20.0098 24.3905C20.0098 24.3805 20.0098 24.3805 19.9998 24.3805ZM19.8998 19.2205C18.8898 19.2205 18.0698 20.0405 18.0698 21.0505C18.0698 22.0405 18.8398 22.8405 19.8298 22.8805C19.8398 22.8705 19.9198 22.8705 20.0098 22.8805C20.9798 22.8305 21.7298 22.0305 21.7398 21.0505C21.7398 20.0505 20.9198 19.2205 19.8998 19.2205Z" fill="#404246"/>
<path d="M19.9998 31.7597C18.7998 31.7597 17.5998 31.4497 16.6698 30.8197C15.7898 30.2297 15.2798 29.3897 15.2798 28.4897C15.2798 27.5997 15.7798 26.7397 16.6698 26.1497C18.5398 24.9097 21.4698 24.9097 23.3298 26.1497C24.2098 26.7397 24.7198 27.5797 24.7198 28.4797C24.7198 29.3697 24.2198 30.2297 23.3298 30.8197C22.3998 31.4397 21.1998 31.7597 19.9998 31.7597ZM17.4998 27.4097C17.0298 27.7197 16.7798 28.1097 16.7798 28.4997C16.7798 28.8897 17.0398 29.2697 17.4998 29.5797C18.8498 30.4897 21.1398 30.4897 22.4898 29.5797C22.9598 29.2697 23.2098 28.8797 23.2098 28.4897C23.2098 28.0997 22.9498 27.7197 22.4898 27.4097C21.1498 26.4997 18.8598 26.5097 17.4998 27.4097Z" fill="#404246"/>
</svg>
