<svg width="44" height="44" viewBox="0 0 44 44" fill="none" xmlns="http://www.w3.org/2000/svg">
<rect width="44" height="44" rx="22" fill="#EA7272" fill-opacity="0.6"/>
<path d="M22 24.75C21.59 24.75 21.25 24.41 21.25 24V19C21.25 18.59 21.59 18.25 22 18.25C22.41 18.25 22.75 18.59 22.75 19V24C22.75 24.41 22.41 24.75 22 24.75Z" fill="#860E0E"/>
<path d="M22 28.0001C21.94 28.0001 21.87 27.9901 21.8 27.9801C21.74 27.9701 21.68 27.9501 21.62 27.9201C21.56 27.9001 21.5 27.8701 21.44 27.8301C21.39 27.7901 21.34 27.7501 21.29 27.7101C21.11 27.5201 21 27.2601 21 27.0001C21 26.7401 21.11 26.4801 21.29 26.2901C21.34 26.2501 21.39 26.2101 21.44 26.1701C21.5 26.1301 21.56 26.1001 21.62 26.0801C21.68 26.0501 21.74 26.0301 21.8 26.0201C21.93 25.9901 22.07 25.9901 22.19 26.0201C22.26 26.0301 22.32 26.0501 22.38 26.0801C22.44 26.1001 22.5 26.1301 22.56 26.1701C22.61 26.2101 22.66 26.2501 22.71 26.2901C22.89 26.4801 23 26.7401 23 27.0001C23 27.2601 22.89 27.5201 22.71 27.7101C22.66 27.7501 22.61 27.7901 22.56 27.8301C22.5 27.8701 22.44 27.9001 22.38 27.9201C22.32 27.9501 22.26 27.9701 22.19 27.9801C22.13 27.9901 22.06 28.0001 22 28.0001Z" fill="#860E0E"/>
<path d="M28.06 32.16H15.94C13.99 32.16 12.5 31.45 11.74 30.17C10.99 28.89 11.09 27.24 12.04 25.53L18.1 14.63C19.1 12.83 20.48 11.84 22 11.84C23.52 11.84 24.9 12.83 25.9 14.63L31.96 25.54C32.91 27.25 33.02 28.89 32.26 30.18C31.5 31.45 30.01 32.16 28.06 32.16ZM22 13.34C21.06 13.34 20.14 14.06 19.41 15.36L13.36 26.27C12.68 27.49 12.57 28.61 13.04 29.42C13.51 30.23 14.55 30.67 15.95 30.67H28.07C29.47 30.67 30.5 30.23 30.98 29.42C31.46 28.61 31.34 27.5 30.66 26.27L24.59 15.36C23.86 14.06 22.94 13.34 22 13.34Z" fill="#860E0E"/>
<rect x="0.5" y="0.5" width="43" height="43" rx="21.5" stroke="#EA7272" stroke-opacity="0.6"/>
</svg>
